<svg version="1.0" xmlns="http://www.w3.org/2000/svg" preserveAspectRatio="xMidYMid meet" viewBox="26 28.4 150.57 159.42"> <metadata> Created by potrace 1.16, written by Peter Selinger 2001-2019 </metadata> <g transform="translate(0.000000,209.000000) scale(0.100000,-0.100000)" fill="#cccccc" stroke="none"> <path d="M900 1800 c-25 -5 -52 -18 -60 -28 -8 -10 -23 -59 -33 -109 l-19 -91 -69 -41 c-37 -23 -74 -41 -82 -41 -7 0 -47 11 -87 25 -105 36 -121 34 -168 -20 -46 -52 -122 -199 -122 -235 0 -16 23 -45 78 -96 l79 -73 -1 -84 -1 -83 -60 -53 c-79 -70 -95 -89 -95 -114 0 -34 78 -182 122 -232 48 -54 60 -55 175 -18 l82 27 75 -40 75 -39 18 -95 c23 -123 34 -136 137 -145 84 -8 184 0 222 17 26 12 34 34 59 149 l16 75 52 27 c29 15 59 32 69 39 13 9 35 6 110 -16 52 -15 105 -26 118 -24 15 2 39 23 63 53 53 69 120 209 112 234 -3 11 -40 51 -81 90 l-74 69 0 82 0 82 74 69 c41 39 78 79 81 89 8 27 -61 171 -114 238 -49 62 -56 63 -182 25 -73 -22 -94 -25 -107 -15 -9 7 -40 24 -69 39 -50 26 -53 29 -63 82 -24 121 -38 157 -67 170 -35 16 -204 23 -263 11z m192 -552 c51 -15 121 -77 147 -131 29 -59 29 -155 0 -214 -42 -86 -134 -144 -230 -143 -186 2 -304 205 -215 368 60 109 178 156 298 120z"></path> </g> </svg>