<svg xmlns="http://www.w3.org/2000/svg" version="1.0" preserveAspectRatio="xMidYMid meet" viewBox="14.5 19.25 159.5 139.25"><metadata>Created by potrace 1.16, written by Peter Selinger 2001-2019</metadata><g transform="translate(0.000000,188.000000) scale(0.100000,-0.100000)" fill="#000000" stroke="none"><path d="M359 1677 c-79 -22 -153 -89 -191 -172 -23 -50 -23 -51 -23 -515 l0 -465 24 -53 c28 -61 113 -144 168 -164 26 -9 90 -13 196 -13 l159 0 24 28 c33 38 33 96 0 134 -24 28 -26 28 -168 33 -78 3 -151 10 -161 14 -45 21 -47 40 -47 486 0 446 2 465 47 486 10 4 83 11 161 14 142 5 144 5 168 33 33 38 33 96 0 134 l-24 28 -144 2 c-91 2 -159 -2 -189 -10z"></path><path d="M1199 1475 c-44 -24 -59 -71 -59 -184 l0 -101 -215 0 -215 0 -32 -29 -33 -29 0 -142 0 -142 33 -29 32 -29 215 0 215 0 0 -101 c0 -115 15 -161 61 -184 35 -19 63 -19 97 -1 29 16 399 385 426 426 9 13 16 40 16 60 0 20 -7 47 -16 60 -27 41 -397 410 -426 426 -34 18 -65 17 -99 -1z"></path></g></svg>